<svg xmlns="http://www.w3.org/2000/svg" version="1.1" xmlns:xlink="http://www.w3.org/1999/xlink" xmlns:svgjs="http://svgjs.dev/svgjs" width="1500" height="1500" viewBox="0 0 1500 1500"><rect width="1500" height="1500" fill="#000000"></rect><g transform="matrix(0.6666666666666666,0,0,0.6666666666666666,249.39393939393938,435.99032258064517)"><svg viewBox="0 0 396 248" data-background-color="#ffffff" preserveAspectRatio="xMidYMid meet" height="939" width="1500" xmlns="http://www.w3.org/2000/svg" xmlns:xlink="http://www.w3.org/1999/xlink"><g id="tight-bounds" transform="matrix(1,0,0,1,0.2400000000000091,0.4000000000000057)"><svg viewBox="0 0 395.52 247.2" height="247.2" width="395.52"><g><svg></svg></g><g><svg viewBox="0 0 395.52 247.2" height="247.2" width="395.52"><g transform="matrix(1,0,0,1,75.54432,99.24706007380072)"><svg viewBox="0 0 244.43135999999998 48.705879852398525" height="48.705879852398525" width="244.43135999999998"><g><svg viewBox="0 0 244.43135999999998 48.705879852398525" height="48.705879852398525" width="244.43135999999998"><g><svg viewBox="0 0 244.43135999999998 48.705879852398525" height="48.705879852398525" width="244.43135999999998"><g><svg viewBox="0 0 244.43135999999998 48.705879852398525" height="48.705879852398525" width="244.43135999999998"><g id="textblocktransform"><svg viewBox="0 0 244.43135999999998 48.705879852398525" height="48.705879852398525" width="244.43135999999998" id="textblock"><g><svg viewBox="0 0 244.43135999999998 48.705879852398525" height="48.705879852398525" width="244.43135999999998"><g transform="matrix(1,0,0,1,0,0)"><svg width="244.43135999999998" viewBox="4.38 -33.33 169.35 33.75" height="48.705879852398525" data-palette-color="#35185a"><path d="M8.33 0L4.38 0 4.38-31.25 8.33-31.25 8.33-21.04 19.44-21.04 19.44-31.25 23.4-31.25 23.4 0 19.44 0 19.44-17.5 8.33-17.5 8.33 0ZM34.86 0L31.11 0 31.11-20.83 34.86-20.83 34.86 0ZM32.98-24.58L32.98-24.58Q31.94-24.58 31.21-25.31 30.48-26.04 30.48-27.08L30.48-27.08Q30.48-28.16 31.21-28.87 31.94-29.58 32.98-29.58L32.98-29.58Q34.06-29.58 34.77-28.87 35.48-28.16 35.48-27.08L35.48-27.08Q35.48-26.04 34.77-25.31 34.06-24.58 32.98-24.58ZM45.27 0L41.52 0 41.52-20.83 45-20.83 45-17.01Q46.11-18.85 47.95-19.95 49.79-21.04 52.32-21.04L52.32-21.04 53.26-17.29Q52.6-17.5 51.73-17.5L51.73-17.5Q48.81-17.5 47.04-15.64 45.27-13.78 45.27-10.35L45.27-10.35 45.27 0ZM67.08 0.42L67.08 0.42Q63.81 0.42 61.23-1.04 58.64-2.5 57.16-5.02 55.69-7.53 55.69-10.63L55.69-10.63Q55.69-13.58 57.11-15.99 58.53-18.4 60.95-19.83 63.36-21.25 66.28-21.25L66.28-21.25Q69.16-21.25 71.56-19.88 73.95-18.51 75.37-16.18 76.8-13.85 76.8-10.9L76.8-10.9 76.8-9.38 63.19-9.38Q62.28-9.38 61.35-9.44 60.41-9.51 59.51-9.65L59.51-9.65Q59.89-6.88 62.02-5 64.16-3.13 67.11-3.13L67.11-3.13Q69.09-3.13 70.79-4.03 72.49-4.93 73.53-6.42L73.53-6.42 74.58-2.15Q73.08-0.94 71.16-0.26 69.23 0.42 67.08 0.42ZM59.4-12.19L59.4-12.19Q61.28-12.5 63.19-12.5L63.19-12.5 70.1-12.5Q70.86-12.5 71.61-12.45 72.35-12.4 73.12-12.33L73.12-12.33Q72.63-14.76 70.69-16.34 68.74-17.92 66.28-17.92L66.28-17.92Q63.74-17.92 61.83-16.23 59.92-14.55 59.4-12.19ZM97.63 0L82.84 0 82.84-31.25 86.8-31.25 86.8-3.54 97.63-3.54 97.63 0ZM111.55 0.28L111.55 0.28Q108.7 0.28 106.34-1.16 103.98-2.6 102.57-5.03 101.17-7.47 101.17-10.42L101.17-10.42Q101.17-13.37 102.57-15.8 103.98-18.23 106.34-19.67 108.7-21.11 111.55-21.11L111.55-21.11Q113.7-21.11 115.6-20.31 117.49-19.51 118.88-18.09L118.88-18.09 118.88-20.83 122.35-20.83 122.35 0 118.88 0 118.88-2.74Q117.49-1.35 115.6-0.54 113.7 0.28 111.55 0.28ZM112.04-3.13L112.04-3.13Q114.02-3.13 115.63-4.11 117.24-5.1 118.2-6.75 119.15-8.4 119.15-10.42L119.15-10.42Q119.15-12.43 118.2-14.08 117.24-15.73 115.63-16.72 114.02-17.71 112.04-17.71L112.04-17.71Q110.06-17.71 108.44-16.72 106.83-15.73 105.87-14.08 104.92-12.43 104.92-10.42L104.92-10.42Q104.92-8.4 105.87-6.75 106.83-5.1 108.44-4.11 110.06-3.13 112.04-3.13ZM132.76 0L129.01 0 129.01-20.83 132.49-20.83 132.49-17.47Q133.63-19.31 135.45-20.28 137.28-21.25 139.39-21.25L139.39-21.25Q141.62-21.25 143.51-20.16 145.4-19.06 146.58-17 147.76-14.93 147.76-11.98L147.76-11.98 147.76 0 144.01 0 144.01-11.46Q144.01-13.92 142.54-15.82 141.06-17.71 138.39-17.71L138.39-17.71Q136.2-17.71 134.48-16.13 132.76-14.55 132.76-11.56L132.76-11.56 132.76 0ZM162.93 0.28L162.93 0.28Q160.09 0.28 157.73-1.16 155.36-2.6 153.96-5.03 152.55-7.47 152.55-10.42L152.55-10.42Q152.55-13.37 153.96-15.8 155.36-18.23 157.73-19.67 160.09-21.11 162.93-21.11L162.93-21.11Q164.98-21.11 166.79-20.38 168.59-19.65 169.98-18.37L169.98-18.37 169.98-33.33 173.73-33.33 173.73 0 170.26 0 170.26-2.74Q168.87-1.35 166.98-0.54 165.09 0.28 162.93 0.28ZM163.42-3.13L163.42-3.13Q165.4-3.13 167.01-4.11 168.63-5.1 169.58-6.75 170.54-8.4 170.54-10.42L170.54-10.42Q170.54-12.43 169.58-14.08 168.63-15.73 167.01-16.72 165.4-17.71 163.42-17.71L163.42-17.71Q161.44-17.71 159.83-16.72 158.21-15.73 157.26-14.08 156.3-12.43 156.3-10.42L156.3-10.42Q156.3-8.4 157.26-6.75 158.21-5.1 159.83-4.11 161.44-3.13 163.42-3.13Z" opacity="1" transform="matrix(1,0,0,1,0,0)" fill="#ffffff" class="wordmark-text-0" data-fill-palette-color="primary" id="text-0"></path></svg></g></svg></g></svg></g></svg></g></svg></g></svg></g></svg></g><path d="M190.198 93.247L190.198 32.487 7.973 32.487 7.973 214.713 190.198 214.713 190.198 153.953 185.805 153.953 185.805 210.32 12.365 210.32 12.365 36.88 185.805 36.88 185.805 93.247Z" fill="#ffffff" stroke="transparent" data-fill-palette-color="tertiary"></path></svg></g><defs></defs></svg><rect width="395.52" height="247.2" fill="none" stroke="none" visibility="hidden"></rect></g></svg></g></svg>