<svg xmlns="http://www.w3.org/2000/svg" version="1.1" xmlns:xlink="http://www.w3.org/1999/xlink" xmlns:svgjs="http://svgjs.dev/svgjs" width="1500" height="1500" viewBox="0 0 1500 1500"><rect width="1500" height="1500" fill="#000000"></rect><g transform="matrix(0.6666666666666666,0,0,0.6666666666666666,249.39393939393932,592.2807185596199)"><svg viewBox="0 0 396 125" data-background-color="#ffffff" preserveAspectRatio="xMidYMid meet" height="473" width="1500" xmlns="http://www.w3.org/2000/svg" xmlns:xlink="http://www.w3.org/1999/xlink"><g id="tight-bounds" transform="matrix(1,0,0,1,0.2400000000000091,0.020856807761674645)"><svg viewBox="0 0 395.52 124.95828638447664" height="124.95828638447664" width="395.52"><g><svg viewBox="0 0 590.9508474506773 186.70157067883017" height="124.95828638447664" width="395.52"><g transform="matrix(1,0,0,1,195.43084745067733,57.69349529380199)"><svg viewBox="0 0 395.52 71.31458009122619" height="71.31458009122619" width="395.52"><g id="textblocktransform"><svg viewBox="0 0 395.52 71.31458009122619" height="71.31458009122619" width="395.52" id="textblock"><g><svg viewBox="0 0 395.52 71.31458009122619" height="71.31458009122619" width="395.52"><g transform="matrix(1,0,0,1,0,0)"><svg width="395.52" viewBox="4.45 -32.9 186.33 33.6" height="71.31458009122619" data-palette-color="#000000"><path d="M4.45-18.1L8.55-18.1 8.55-0.1Q8.25 0 7.75 0.13 7.25 0.25 6.65 0.25L6.65 0.25Q5.55 0.25 5-0.2 4.45-0.65 4.45-1.6L4.45-1.6 4.45-18.1ZM8.55-14.75L4.45-14.75 4.45-30.3Q4.7-30.4 5.23-30.53 5.75-30.65 6.35-30.65L6.35-30.65Q7.45-30.65 8-30.23 8.55-29.8 8.55-28.8L8.55-28.8 8.55-14.75ZM24.15-18.1L28.25-18.1 28.25-0.1Q27.95 0 27.45 0.13 26.95 0.25 26.35 0.25L26.35 0.25Q25.25 0.25 24.7-0.2 24.15-0.65 24.15-1.6L24.15-1.6 24.15-18.1ZM28.25-14.75L24.15-14.75 24.15-30.3Q24.4-30.4 24.93-30.53 25.45-30.65 26.05-30.65L26.05-30.65Q27.15-30.65 27.7-30.23 28.25-29.8 28.25-28.8L28.25-28.8 28.25-14.75ZM26.3-13.7L6.9-13.7 6.9-17.1 26.3-17.1 26.3-13.7ZM36.1-30.4L36.1-30.4Q36.1-31.45 36.85-32.18 37.6-32.9 38.7-32.9L38.7-32.9Q39.85-32.9 40.55-32.18 41.25-31.45 41.25-30.4L41.25-30.4Q41.25-29.35 40.55-28.63 39.85-27.9 38.7-27.9L38.7-27.9Q37.6-27.9 36.85-28.63 36.1-29.35 36.1-30.4ZM36.7-13.2L40.7-13.2 40.7-0.1Q40.45 0 39.95 0.13 39.45 0.25 38.85 0.25L38.85 0.25Q37.8 0.25 37.25-0.18 36.7-0.6 36.7-1.55L36.7-1.55 36.7-13.2ZM40.7-11.25L36.7-11.25 36.7-23Q36.95-23.1 37.47-23.23 38-23.35 38.6-23.35L38.6-23.35Q39.65-23.35 40.17-22.93 40.7-22.5 40.7-21.5L40.7-21.5 40.7-11.25ZM52.5-18.8L52.5-10.9 48.5-10.9 48.5-18.5Q48.5-19.65 48.92-20.33 49.35-21 50.35-21.65L50.35-21.65Q51.65-22.5 53.9-23.13 56.15-23.75 58.9-23.75L58.9-23.75Q62.9-23.75 62.9-21.75L62.9-21.75Q62.9-21.25 62.75-20.83 62.6-20.4 62.35-20.1L62.35-20.1Q61.85-20.2 61.05-20.3 60.25-20.4 59.45-20.4L59.45-20.4Q57.15-20.4 55.4-19.93 53.65-19.45 52.5-18.8L52.5-18.8ZM48.5-13.2L52.5-12.6 52.5-0.1Q52.25 0 51.75 0.13 51.25 0.25 50.65 0.25L50.65 0.25Q49.6 0.25 49.05-0.18 48.5-0.6 48.5-1.55L48.5-1.55 48.5-13.2ZM69.04-9L68.84-12.15 83.94-14.2Q83.74-16.95 82.04-18.73 80.34-20.5 77.34-20.5L77.34-20.5Q74.24-20.5 72.22-18.28 70.19-16.05 70.19-11.9L70.19-11.9 70.19-10.8Q70.54-6.8 72.82-4.73 75.09-2.65 79.04-2.65L79.04-2.65Q81.14-2.65 82.84-3.35 84.54-4.05 85.54-4.85L85.54-4.85Q86.09-4.5 86.42-4.03 86.74-3.55 86.74-2.95L86.74-2.95Q86.74-2 85.67-1.18 84.59-0.35 82.82 0.15 81.04 0.65 78.84 0.65L78.84 0.65Q74.99 0.65 72.17-0.75 69.34-2.15 67.82-4.93 66.29-7.7 66.29-11.7L66.29-11.7Q66.29-14.55 67.12-16.78 67.94-19 69.42-20.55 70.89-22.1 72.94-22.93 74.99-23.75 77.39-23.75L77.39-23.75Q80.44-23.75 82.77-22.45 85.09-21.15 86.42-18.82 87.74-16.5 87.74-13.5L87.74-13.5Q87.74-12.4 87.24-11.93 86.74-11.45 85.84-11.35L85.84-11.35 69.04-9ZM94.24-17.75L98.34-17.75 98.34-0.4 96.44 0Q95.49 0 94.87-0.63 94.24-1.25 94.24-2.2L94.24-2.2 94.24-17.75ZM96.44 0L96.44-3.5 112.69-3.5Q112.94-3.3 113.09-2.85 113.24-2.4 113.24-1.85L113.24-1.85Q113.24-1 112.79-0.5 112.34 0 111.59 0L111.59 0 96.44 0ZM98.34-14.75L94.24-14.75 94.24-30.3Q94.49-30.4 95.02-30.53 95.54-30.65 96.14-30.65L96.14-30.65Q97.24-30.65 97.79-30.23 98.34-29.8 98.34-28.8L98.34-28.8 98.34-14.75ZM126.84-2.6L126.84-2.6Q128.94-2.6 130.31-3.03 131.69-3.45 132.29-3.85L132.29-3.85 132.29-11.1 126.09-10.45Q123.49-10.25 122.24-9.3 120.99-8.35 120.99-6.55L120.99-6.55Q120.99-4.7 122.46-3.65 123.94-2.6 126.84-2.6ZM126.79-23.75L126.79-23.75Q131.14-23.75 133.69-21.8 136.24-19.85 136.24-15.65L136.24-15.65 136.24-3.8Q136.24-2.7 135.81-2.13 135.39-1.55 134.54-1.05L134.54-1.05Q133.34-0.4 131.34 0.15 129.34 0.7 126.84 0.7L126.84 0.7Q122.14 0.7 119.56-1.15 116.99-3 116.99-6.5L116.99-6.5Q116.99-9.75 119.16-11.48 121.34-13.2 125.19-13.55L125.19-13.55 132.29-14.25 132.29-15.65Q132.29-18.15 130.79-19.3 129.29-20.45 126.74-20.45L126.74-20.45Q124.69-20.45 122.81-19.85 120.94-19.25 119.49-18.5L119.49-18.5Q119.09-18.85 118.76-19.33 118.44-19.8 118.44-20.3L118.44-20.3Q118.44-21.6 119.89-22.3L119.89-22.3Q121.24-23 123.01-23.38 124.79-23.75 126.79-23.75ZM163.54-15.25L163.54-10.15 159.54-10.15 159.54-15.05Q159.54-17.85 157.96-19.15 156.39-20.45 153.74-20.45L153.74-20.45Q151.74-20.45 150.19-19.95 148.64-19.45 147.54-18.8L147.54-18.8 147.54-10.15 143.54-10.15 143.54-18.6Q143.54-19.65 143.96-20.33 144.39-21 145.44-21.65L145.44-21.65Q146.74-22.4 148.89-23.08 151.04-23.75 153.74-23.75L153.74-23.75Q158.29-23.75 160.91-21.68 163.54-19.6 163.54-15.25L163.54-15.25ZM143.54-12.9L147.54-12.9 147.54-0.1Q147.29 0 146.79 0.13 146.29 0.25 145.69 0.25L145.69 0.25Q144.64 0.25 144.09-0.18 143.54-0.6 143.54-1.55L143.54-1.55 143.54-12.9ZM159.54-12.9L163.54-12.9 163.54-0.1Q163.29 0 162.76 0.13 162.24 0.25 161.69 0.25L161.69 0.25Q160.59 0.25 160.06-0.18 159.54-0.6 159.54-1.55L159.54-1.55 159.54-12.9ZM186.78-3.95L186.78-20.75 190.78-20.8 190.78-3.8Q190.78-2.85 190.36-2.27 189.93-1.7 189.03-1.15L189.03-1.15Q188.03-0.5 186.18 0.08 184.33 0.65 181.93 0.65L181.93 0.65Q178.33 0.65 175.58-0.6 172.83-1.85 171.28-4.53 169.73-7.2 169.73-11.45L169.73-11.45Q169.73-15.8 171.26-18.5 172.78-21.2 175.38-22.48 177.98-23.75 181.08-23.75L181.08-23.75Q183.03-23.75 184.78-23.2 186.53-22.65 187.53-21.85L187.53-21.85 187.53-18.15Q186.58-19.1 185.06-19.78 183.53-20.45 181.48-20.45L181.48-20.45Q179.43-20.45 177.68-19.58 175.93-18.7 174.88-16.7 173.83-14.7 173.83-11.35L173.83-11.35Q173.83-6.8 176.03-4.73 178.23-2.65 181.88-2.65L181.88-2.65Q183.63-2.65 184.76-3.03 185.88-3.4 186.78-3.95L186.78-3.95ZM190.78-19.8L186.78-19.75 186.78-32.4Q187.03-32.5 187.56-32.63 188.08-32.75 188.63-32.75L188.63-32.75Q189.73-32.75 190.26-32.33 190.78-31.9 190.78-30.95L190.78-30.95 190.78-19.8Z" opacity="1" transform="matrix(1,0,0,1,0,0)" fill="#ffffff" class="wordmark-text-0" data-fill-palette-color="primary" id="text-0"></path></svg></g></svg></g></svg></g></svg></g><g><svg viewBox="0 0 178.59518664106102 186.70157067883017" height="186.70157067883017" width="178.59518664106102"><g><svg xmlns="http://www.w3.org/2000/svg" xmlns:xlink="http://www.w3.org/1999/xlink" version="1.1" x="0" y="0" viewBox="6.995415957167584 5.044 86.00811639069867 89.912" enable-background="new 0 0 100 100" xml:space="preserve" height="186.70157067883017" width="178.59518664106102" class="icon-icon-0" data-fill-palette-color="accent" id="icon-0"><g fill="#6eb5f5" data-fill-palette-color="accent"><path d="M38.627 61.469C38.449 58.688 39.513 58.146 41.119 58.146S43.849 58.688 43.611 61.469C43.465 63.175 42.891 64.792 41.119 64.792 39.153 64.792 38.762 63.583 38.627 61.469" fill="#ffffff" data-fill-palette-color="accent"></path><path d="M47.172 67.524C47.047 66.455 46.125 65.774 45.115 65.773L43.849 65.75 42.015 69.341 41.772 67.525 42.056 66.919C42.364 66.261 41.94 65.751 41.651 65.751H40.647C40.358 65.751 39.934 66.261 40.242 66.919L40.526 67.525 40.283 69.341 38.449 65.75 37.051 65.762C36.015 65.761 35.22 66.423 35.126 67.525L35.957 79.873C36.447 80.399 36.581 80.482 37.203 80.833L37.618 93.524C38.033 94.411 39.261 94.411 40.941 94.411 42.659 94.411 44.264 94.411 44.679 93.524L45.074 80.833C45.682 80.473 45.828 80.442 46.341 79.873z" fill="#ffffff" data-fill-palette-color="accent"></path><path d="M58.664 8.367C58.486 5.586 59.55 5.044 61.156 5.044S63.886 5.586 63.648 8.367C63.502 10.073 62.928 11.69 61.156 11.69 59.19 11.69 58.8 10.481 58.664 8.367" fill="#ffffff" data-fill-palette-color="accent"></path><path d="M67.209 14.422C67.084 13.353 66.162 12.672 65.152 12.671L63.886 12.648 62.052 16.239 61.809 14.423 62.093 13.817C62.401 13.159 61.977 12.649 61.688 12.649H60.684C60.395 12.649 59.971 13.159 60.279 13.817L60.563 14.423 60.32 16.239 58.486 12.648 57.088 12.66C56.052 12.659 55.257 13.321 55.163 14.423L55.994 26.771C56.484 27.297 56.618 27.38 57.24 27.731L57.655 40.422C58.07 41.309 59.298 41.309 60.978 41.309 62.696 41.309 64.301 41.309 64.716 40.422L65.111 27.731C65.719 27.371 65.865 27.34 66.378 26.771z" fill="#ffffff" data-fill-palette-color="accent"></path><path d="M49.634 15.972C50.033 15.765 50.284 15.352 50.284 14.903V14.28A1.2 1.2 0 0 0 49.3 13.098 29 29 0 0 0 43.975 12.601C27.46 12.601 13.996 26.179 13.774 42.909H8.199A1.202 1.202 0 0 0 7.251 44.852L23.444 65.613 39.637 44.852A1.205 1.205 0 0 0 38.689 42.909H33.221C33.319 31.125 40.01 20.967 49.634 15.972" fill="#ffffff" data-fill-palette-color="accent"></path><path d="M91.801 64.648A1.203 1.203 0 0 0 92.749 62.705L76.557 41.944 60.364 62.705A1.203 1.203 0 0 0 61.313 64.648H66.781C66.681 76.486 59.929 86.595 50.235 91.623 49.836 91.83 49.585 92.243 49.585 92.692V93.254C49.585 93.832 49.995 94.327 50.564 94.435 52.341 94.773 54.164 94.956 56.026 94.956 72.541 94.956 86.12 81.485 86.227 64.648z" fill="#ffffff" data-fill-palette-color="accent"></path></g></svg></g></svg></g></svg></g><defs></defs></svg><rect width="395.52" height="124.95828638447664" fill="none" stroke="none" visibility="hidden"></rect></g></svg></g></svg>